<svg xmlns="http://www.w3.org/2000/svg" viewBox="0 0 26 46" width="156" height="276" role="img" aria-label="the dripstone_caves mirror look">
<!-- fp dripstone_caves c60026c4c5 -->
<rect x="0" y="0" width="26" height="46" fill="#0d1420" rx="2"/>
<g transform="translate(3,3)"><rect x="0" y="0" width="20" height="40" fill="#474F52"/><path d="M0 0 L5 0 L2.5 6 Z M5 0 L10 0 L7.5 6 Z M10 0 L15 0 L12.5 6 Z M15 0 L20 0 L17.5 6 Z" fill="#835432"/><path d="M0 40 L5 40 L2.5 34 Z M5 40 L10 40 L7.5 34 Z M10 40 L15 40 L12.5 34 Z M15 40 L20 40 L17.5 34 Z" fill="#835432"/><path d="M0 0h20v40H0z M1.6 1.6v36.8h16.8V1.6z" fill="#474F52" fill-rule="evenodd"/><rect x="0" y="0" width="20" height="40" fill="none" stroke="#ffffff40" stroke-width="0.6"/></g>
</svg>
