<svg xmlns="http://www.w3.org/2000/svg" viewBox="0 0 182 108" width="364" height="216" role="img" aria-label="a plain DHD and a sign dial, side by side">
<!-- dhd RD,D,RA -->
<rect x="0" y="0" width="182" height="108" fill="#0d1420" rx="3"/><text x="12.0" y="22.0" font-family="sans-serif" font-size="9.0" fill="#e6edf3" text-anchor="start">Plain</text><rect x="12" y="30" width="66" height="66" fill="#2b3442"/><rect x="35.0" y="31.0" width="20.0" height="20.0" fill="none" stroke="#f9d68f" stroke-width="1.4"/><rect x="34.2" y="52.2" width="21.5" height="21.5" fill="#15101f" stroke="#0b0f1655" stroke-width="0.5"/><text x="45.0" y="66.5" font-family="monospace" font-size="13.2" fill="#ffffffe0" text-anchor="middle">A</text><rect x="57.0" y="53.0" width="20.0" height="20.0" fill="none" stroke="#f9d68f" stroke-width="1.4"/><rect x="13.0" y="75.0" width="20.0" height="20.0" fill="none" stroke="#f9d68f" stroke-width="1.4"/><rect x="34.2" y="74.2" width="21.5" height="21.5" fill="#15101f" stroke="#0b0f1655" stroke-width="0.5"/><text x="45.0" y="88.5" font-family="monospace" font-size="9.7" fill="#ffffffe0" text-anchor="middle">IA</text><rect x="57.0" y="75.0" width="20.0" height="20.0" fill="none" stroke="#f9d68f" stroke-width="1.4"/><text x="104.0" y="22.0" font-family="sans-serif" font-size="9.0" fill="#e6edf3" text-anchor="start">Sign dial</text><rect x="104" y="30" width="66" height="66" fill="#2b3442"/><rect x="126.2" y="30.2" width="21.5" height="21.5" fill="#a33030" stroke="#0b0f1655" stroke-width="0.5"/><rect x="127.0" y="31.0" width="20.0" height="20.0" fill="none" stroke="#f9d68f" stroke-width="1.4"/><text x="137.0" y="44.5" font-family="monospace" font-size="9.7" fill="#ffffffe0" text-anchor="middle">RD</text><rect x="126.2" y="52.2" width="21.5" height="21.5" fill="#15101f" stroke="#0b0f1655" stroke-width="0.5"/><text x="137.0" y="66.5" font-family="monospace" font-size="13.2" fill="#ffffffe0" text-anchor="middle">A</text><rect x="148.2" y="52.2" width="21.5" height="21.5" fill="#15101f" stroke="#0b0f1655" stroke-width="0.5"/><rect x="149.0" y="53.0" width="20.0" height="20.0" fill="none" stroke="#f9d68f" stroke-width="1.4"/><text x="159.0" y="66.5" font-family="monospace" font-size="13.2" fill="#ffffffe0" text-anchor="middle">D</text><rect x="104.2" y="74.2" width="21.5" height="21.5" fill="#a33030" stroke="#0b0f1655" stroke-width="0.5"/><rect x="105.0" y="75.0" width="20.0" height="20.0" fill="none" stroke="#f9d68f" stroke-width="1.4"/><text x="115.0" y="88.5" font-family="monospace" font-size="9.7" fill="#ffffffe0" text-anchor="middle">RA</text><rect x="126.2" y="74.2" width="21.5" height="21.5" fill="#15101f" stroke="#0b0f1655" stroke-width="0.5"/><text x="137.0" y="88.5" font-family="monospace" font-size="9.7" fill="#ffffffe0" text-anchor="middle">IA</text><rect x="148.2" y="74.2" width="21.5" height="21.5" fill="#15101f" stroke="#0b0f1655" stroke-width="0.5"/><rect x="149.0" y="75.0" width="20.0" height="20.0" fill="none" stroke="#f9d68f" stroke-width="1.4"/>
</svg>
