<svg xmlns="http://www.w3.org/2000/svg" viewBox="0 0 736 292" width="736" role="img" aria-label="Underground, the Nether, the End">
<style>text{font-family:ui-monospace,SFMono-Regular,Menlo,monospace}.n{font-size:9px;fill:#93a4bb}.t{font-size:13px;fill:#dbe3ee;font-family:ui-sans-serif,system-ui,sans-serif}</style>
<rect x="0" y="0" width="736" height="292" fill="#0d1420"/>
<text class="t" x="4" y="22">Underground, the Nether, the End</text>
<!-- fp dripstone_caves c60026c4c5 -->
<g transform="translate(24.0,40) scale(2.2)"><rect x="0" y="0" width="20" height="40" fill="#474F52"/><path d="M0 0 L5 0 L2.5 6 Z M5 0 L10 0 L7.5 6 Z M10 0 L15 0 L12.5 6 Z M15 0 L20 0 L17.5 6 Z" fill="#835432"/><path d="M0 40 L5 40 L2.5 34 Z M5 40 L10 40 L7.5 34 Z M10 40 L15 40 L12.5 34 Z M15 40 L20 40 L17.5 34 Z" fill="#835432"/><path d="M0 0h20v40H0z M1.6 1.6v36.8h16.8V1.6z" fill="#474F52" fill-rule="evenodd"/><rect x="0" y="0" width="20" height="40" fill="none" stroke="#ffffff40" stroke-width="0.6"/></g>
<text class="n" x="46.0" y="142" text-anchor="middle">dripstone_caves</text>
<!-- fp lush_caves 4f5651a13a -->
<g transform="translate(116.0,40) scale(2.2)"><rect x="0" y="0" width="20" height="40" fill="#5E7C16"/><g fill="#80C71F"><circle cx="2" cy="1.8" r="2.2"/><circle cx="2" cy="38.2" r="2.2"/><circle cx="6" cy="1.8" r="2.2"/><circle cx="6" cy="38.2" r="2.2"/><circle cx="10" cy="1.8" r="2.2"/><circle cx="10" cy="38.2" r="2.2"/><circle cx="14" cy="1.8" r="2.2"/><circle cx="14" cy="38.2" r="2.2"/><circle cx="18" cy="1.8" r="2.2"/><circle cx="18" cy="38.2" r="2.2"/><circle cx="1.8" cy="2.4" r="2.2"/><circle cx="18.2" cy="2.4" r="2.2"/><circle cx="1.8" cy="6.8" r="2.2"/><circle cx="18.2" cy="6.8" r="2.2"/><circle cx="1.8" cy="11.2" r="2.2"/><circle cx="18.2" cy="11.2" r="2.2"/><circle cx="1.8" cy="15.6" r="2.2"/><circle cx="18.2" cy="15.6" r="2.2"/><circle cx="1.8" cy="20.0" r="2.2"/><circle cx="18.2" cy="20.0" r="2.2"/><circle cx="1.8" cy="24.4" r="2.2"/><circle cx="18.2" cy="24.4" r="2.2"/><circle cx="1.8" cy="28.8" r="2.2"/><circle cx="18.2" cy="28.8" r="2.2"/><circle cx="1.8" cy="33.2" r="2.2"/><circle cx="18.2" cy="33.2" r="2.2"/><circle cx="1.8" cy="37.6" r="2.2"/><circle cx="18.2" cy="37.6" r="2.2"/></g><path d="M0 0 L5 0 L2.5 6 Z M5 0 L10 0 L7.5 6 Z M10 0 L15 0 L12.5 6 Z M15 0 L20 0 L17.5 6 Z" fill="#474F52"/><path d="M0 0h20v40H0z M1.6 1.6v36.8h16.8V1.6z" fill="#5E7C16" fill-rule="evenodd"/><rect x="0" y="0" width="20" height="40" fill="none" stroke="#ffffff40" stroke-width="0.6"/></g>
<text class="n" x="138.0" y="142" text-anchor="middle">lush_caves</text>
<!-- fp deep_dark d64d7a48d1 -->
<g transform="translate(208.0,40) scale(2.2)"><rect x="0" y="0" width="20" height="40" fill="#1D1D21"/><circle cx="10" cy="20" r="6.2" fill="#169C9C"/><path d="M10 11 L17 20 L10 29 L3 20 Z" fill="#1D1D21"/><g fill="#169C9C"><rect x="1.0" y="0" width="1.6" height="40"/><rect x="4.2" y="0" width="1.6" height="40"/><rect x="7.4" y="0" width="1.6" height="40"/><rect x="10.6" y="0" width="1.6" height="40"/><rect x="13.8" y="0" width="1.6" height="40"/><rect x="17.0" y="0" width="1.6" height="40"/></g><path d="M0 0h20v40H0z M1.6 1.6v36.8h16.8V1.6z" fill="#1D1D21" fill-rule="evenodd"/><rect x="0" y="0" width="20" height="40" fill="none" stroke="#ffffff40" stroke-width="0.6"/></g>
<text class="n" x="230.0" y="142" text-anchor="middle">deep_dark</text>
<!-- fp nether ed18826a59 -->
<g transform="translate(300.0,40) scale(2.2)"><rect x="0" y="0" width="20" height="40" fill="#B02E26"/><path d="M0 40 L5 40 L2.5 34 Z M5 40 L10 40 L7.5 34 Z M10 40 L15 40 L12.5 34 Z M15 40 L20 40 L17.5 34 Z" fill="#1D1D21"/><defs><linearGradient id="gere3_1" x1="0" y1="1" x2="0" y2="0"><stop offset="0" stop-color="#F9801D" stop-opacity="1"/><stop offset="1" stop-color="#F9801D" stop-opacity="0"/></linearGradient></defs><rect x="0" y="0" width="20" height="40" fill="url(#gere3_1)"/><path d="M0 0h20v40H0z M1.6 1.6v36.8h16.8V1.6z" fill="#1D1D21" fill-rule="evenodd"/><rect x="0" y="0" width="20" height="40" fill="none" stroke="#ffffff40" stroke-width="0.6"/></g>
<text class="n" x="322.0" y="142" text-anchor="middle">nether</text>
<!-- fp crimson_forest f85a46b38d -->
<g transform="translate(392.0,40) scale(2.2)"><rect x="0" y="0" width="20" height="40" fill="#B02E26"/><path d="M0 0 L5 0 L2.5 6 Z M5 0 L10 0 L7.5 6 Z M10 0 L15 0 L12.5 6 Z M15 0 L20 0 L17.5 6 Z" fill="#8932B8"/><rect x="0" y="35" width="20" height="5" fill="#1D1D21"/><path d="M0 0h20v40H0z M1.6 1.6v36.8h16.8V1.6z" fill="#B02E26" fill-rule="evenodd"/><rect x="0" y="0" width="20" height="40" fill="none" stroke="#ffffff40" stroke-width="0.6"/></g>
<text class="n" x="414.0" y="142" text-anchor="middle">crimson_forest</text>
<!-- fp warped_forest 8bd5ef7a26 -->
<g transform="translate(484.0,40) scale(2.2)"><rect x="0" y="0" width="20" height="40" fill="#169C9C"/><path d="M0 0 L5 0 L2.5 6 Z M5 0 L10 0 L7.5 6 Z M10 0 L15 0 L12.5 6 Z M15 0 L20 0 L17.5 6 Z" fill="#3C44AA"/><rect x="0" y="35" width="20" height="5" fill="#1D1D21"/><path d="M0 0h20v40H0z M1.6 1.6v36.8h16.8V1.6z" fill="#169C9C" fill-rule="evenodd"/><rect x="0" y="0" width="20" height="40" fill="none" stroke="#ffffff40" stroke-width="0.6"/></g>
<text class="n" x="506.0" y="142" text-anchor="middle">warped_forest</text>
<!-- fp soul_sand_valley 3f5c924173 -->
<g transform="translate(576.0,40) scale(2.2)"><rect x="0" y="0" width="20" height="40" fill="#835432"/><path d="M4.5 11h11v12h-2.5v3h-6v-3H4.5z M6.5 14h2.5v3H6.5z M11 14h2.5v3H11z M9 18.5h2v2H9z" fill="#169C9C" fill-rule="evenodd"/><defs><linearGradient id="gere6_1" x1="0" y1="1" x2="0" y2="0"><stop offset="0" stop-color="#1D1D21" stop-opacity="1"/><stop offset="1" stop-color="#1D1D21" stop-opacity="0"/></linearGradient></defs><rect x="0" y="0" width="20" height="40" fill="url(#gere6_1)"/><path d="M0 0h20v40H0z M1.6 1.6v36.8h16.8V1.6z" fill="#835432" fill-rule="evenodd"/><rect x="0" y="0" width="20" height="40" fill="none" stroke="#ffffff40" stroke-width="0.6"/></g>
<text class="n" x="598.0" y="142" text-anchor="middle">soul_sand_valley</text>
<!-- fp basalt_deltas fd3a1f9c19 -->
<g transform="translate(668.0,40) scale(2.2)"><rect x="0" y="0" width="20" height="40" fill="#474F52"/><g fill="#1D1D21"><rect x="1.0" y="0" width="1.6" height="40"/><rect x="4.2" y="0" width="1.6" height="40"/><rect x="7.4" y="0" width="1.6" height="40"/><rect x="10.6" y="0" width="1.6" height="40"/><rect x="13.8" y="0" width="1.6" height="40"/><rect x="17.0" y="0" width="1.6" height="40"/></g><defs><linearGradient id="gere7_1" x1="0" y1="1" x2="0" y2="0"><stop offset="0" stop-color="#F9801D" stop-opacity="1"/><stop offset="1" stop-color="#F9801D" stop-opacity="0"/></linearGradient></defs><rect x="0" y="0" width="20" height="40" fill="url(#gere7_1)"/><path d="M0 0h20v40H0z M1.6 1.6v36.8h16.8V1.6z" fill="#1D1D21" fill-rule="evenodd"/><rect x="0" y="0" width="20" height="40" fill="none" stroke="#ffffff40" stroke-width="0.6"/></g>
<text class="n" x="690.0" y="142" text-anchor="middle">basalt_deltas</text>
<!-- fp end e06948c775 -->
<g transform="translate(24.0,166) scale(2.2)"><rect x="0" y="0" width="20" height="40" fill="#1D1D21"/><g fill="#8932B8"><circle cx="2" cy="1.8" r="2.2"/><circle cx="2" cy="38.2" r="2.2"/><circle cx="6" cy="1.8" r="2.2"/><circle cx="6" cy="38.2" r="2.2"/><circle cx="10" cy="1.8" r="2.2"/><circle cx="10" cy="38.2" r="2.2"/><circle cx="14" cy="1.8" r="2.2"/><circle cx="14" cy="38.2" r="2.2"/><circle cx="18" cy="1.8" r="2.2"/><circle cx="18" cy="38.2" r="2.2"/><circle cx="1.8" cy="2.4" r="2.2"/><circle cx="18.2" cy="2.4" r="2.2"/><circle cx="1.8" cy="6.8" r="2.2"/><circle cx="18.2" cy="6.8" r="2.2"/><circle cx="1.8" cy="11.2" r="2.2"/><circle cx="18.2" cy="11.2" r="2.2"/><circle cx="1.8" cy="15.6" r="2.2"/><circle cx="18.2" cy="15.6" r="2.2"/><circle cx="1.8" cy="20.0" r="2.2"/><circle cx="18.2" cy="20.0" r="2.2"/><circle cx="1.8" cy="24.4" r="2.2"/><circle cx="18.2" cy="24.4" r="2.2"/><circle cx="1.8" cy="28.8" r="2.2"/><circle cx="18.2" cy="28.8" r="2.2"/><circle cx="1.8" cy="33.2" r="2.2"/><circle cx="18.2" cy="33.2" r="2.2"/><circle cx="1.8" cy="37.6" r="2.2"/><circle cx="18.2" cy="37.6" r="2.2"/></g><g fill="none" stroke="#FED83D" stroke-width="1.1"><circle cx="10" cy="20" r="6.4"/><ellipse cx="10" cy="20" rx="2.8" ry="6.4"/><path d="M3.8 17.6h12.4 M3.8 22.4h12.4"/></g><path d="M0 0h20v40H0z M1.6 1.6v36.8h16.8V1.6z" fill="#8932B8" fill-rule="evenodd"/><rect x="0" y="0" width="20" height="40" fill="none" stroke="#ffffff40" stroke-width="0.6"/></g>
<text class="n" x="46.0" y="268" text-anchor="middle">end</text>
<!-- fp end_highlands fd853d53e7 -->
<g transform="translate(116.0,166) scale(2.2)"><rect x="0" y="0" width="20" height="40" fill="#1D1D21"/><path d="M0 0 L5 0 L2.5 6 Z M5 0 L10 0 L7.5 6 Z M10 0 L15 0 L12.5 6 Z M15 0 L20 0 L17.5 6 Z" fill="#8932B8"/><circle cx="10" cy="20" r="6.2" fill="#FED83D"/><path d="M0 0h20v40H0z M1.6 1.6v36.8h16.8V1.6z" fill="#8932B8" fill-rule="evenodd"/><rect x="0" y="0" width="20" height="40" fill="none" stroke="#ffffff40" stroke-width="0.6"/></g>
<text class="n" x="138.0" y="268" text-anchor="middle">end_highlands</text>
<!-- fp end_midlands 3ea8746efa -->
<g transform="translate(208.0,166) scale(2.2)"><rect x="0" y="0" width="20" height="40" fill="#1D1D21"/><rect x="0" y="20" width="20" height="20" fill="#8932B8"/><circle cx="10" cy="20" r="6.2" fill="#FED83D"/><path d="M0 0h20v40H0z M1.6 1.6v36.8h16.8V1.6z" fill="#8932B8" fill-rule="evenodd"/><rect x="0" y="0" width="20" height="40" fill="none" stroke="#ffffff40" stroke-width="0.6"/></g>
<text class="n" x="230.0" y="268" text-anchor="middle">end_midlands</text>
<!-- fp small_end_islands 8dcf5196d9 -->
<g transform="translate(300.0,166) scale(2.2)"><rect x="0" y="0" width="20" height="40" fill="#1D1D21"/><rect x="0" y="0" width="10" height="20" fill="#8932B8"/><rect x="10" y="20" width="10" height="20" fill="#8932B8"/><path d="M0 0h20v40H0z M1.6 1.6v36.8h16.8V1.6z" fill="#8932B8" fill-rule="evenodd"/><rect x="0" y="0" width="20" height="40" fill="none" stroke="#ffffff40" stroke-width="0.6"/></g>
<text class="n" x="322.0" y="268" text-anchor="middle">small_end_islands</text>
<!-- fp end_barrens 48e4072591 -->
<g transform="translate(392.0,166) scale(2.2)"><rect x="0" y="0" width="20" height="40" fill="#1D1D21"/><rect x="0" y="17.5" width="20" height="5" fill="#8932B8"/><path d="M0 0h20v40H0z M1.6 1.6v36.8h16.8V1.6z" fill="#8932B8" fill-rule="evenodd"/><rect x="0" y="0" width="20" height="40" fill="none" stroke="#ffffff40" stroke-width="0.6"/></g>
<text class="n" x="414.0" y="268" text-anchor="middle">end_barrens</text>
<!-- fp the_void ce0bad93a4 -->
<g transform="translate(484.0,166) scale(2.2)"><rect x="0" y="0" width="20" height="40" fill="#1D1D21"/><path d="M0 0h20v40H0z M1.6 1.6v36.8h16.8V1.6z" fill="#474F52" fill-rule="evenodd"/><rect x="0" y="0" width="20" height="40" fill="none" stroke="#ffffff40" stroke-width="0.6"/></g>
<text class="n" x="506.0" y="268" text-anchor="middle">the_void</text>
</svg>
